<svg xmlns="http://www.w3.org/2000/svg" width="640" height="400" viewBox="0 0 640 400">
  <rect width="100%" height="100%" fill="#f7f7f5"/>
  <rect x="90" y="60" width="360" height="260" fill="#ffffff" stroke="#b0b0b0"/>
  <rect x="470" y="60" width="30" height="260" fill="#ffffff" stroke="#b0b0b0"/>
  <g>
    <rect x="100" y="70" width="80" height="60" fill="#dbe9f6"/>
    <rect x="180" y="70" width="80" height="60" fill="#a6c8e6"/>
    <rect x="260" y="70" width="80" height="60" fill="#6fa8dc"/>
    <rect x="340" y="70" width="80" height="60" fill="#3d85c6"/>
    <rect x="100" y="130" width="80" height="60" fill="#f6e3db"/>
    <rect x="180" y="130" width="80" height="60" fill="#e6b8a6"/>
    <rect x="260" y="130" width="80" height="60" fill="#dc6f6f"/>
    <rect x="340" y="130" width="80" height="60" fill="#c65c5c"/>
    <rect x="100" y="190" width="80" height="60" fill="#e9f6db"/>
    <rect x="180" y="190" width="80" height="60" fill="#c8e6a6"/>
    <rect x="260" y="190" width="80" height="60" fill="#a8dc6f"/>
    <rect x="340" y="190" width="80" height="60" fill="#85c63d"/>
    <rect x="100" y="250" width="80" height="60" fill="#f5f1db"/>
    <rect x="180" y="250" width="80" height="60" fill="#e6d8a6"/>
    <rect x="260" y="250" width="80" height="60" fill="#dcc46f"/>
    <rect x="340" y="250" width="80" height="60" fill="#c6a83d"/>
  </g>
  <linearGradient id="cb" x1="0" x2="0" y1="0" y2="1">
    <stop offset="0%" stop-color="#3d85c6"/>
    <stop offset="50%" stop-color="#ffffff"/>
    <stop offset="100%" stop-color="#c65c5c"/>
  </linearGradient>
  <rect x="470" y="60" width="30" height="260" fill="url(#cb)"/>
  <text x="90" y="35" font-family="Arial" font-size="16" fill="#333">Heatmap - placeholder</text>
</svg>
